<svg width="16" height="19" viewBox="0 0 16 19" fill="none" xmlns="http://www.w3.org/2000/svg">
<circle opacity="0.4" cx="8" cy="8" r="8" fill="#0055FF"/>
<path fill-rule="evenodd" clip-rule="evenodd" d="M8 7.5C9.38071 7.5 10.5 6.38071 10.5 5C10.5 3.61929 9.38071 2.5 8 2.5C6.61929 2.5 5.5 3.61929 5.5 5C5.5 6.38071 6.61929 7.5 8 7.5ZM6.21013 10.2022C6.80238 10.0702 7.40437 10 8 10C8.59563 10 9.19762 10.0702 9.78987 10.2022C13.0417 10.9271 16 13.5174 16 16.6017C16 18.9399 14.5606 18.2831 12.8686 17.5111C11.9222 17.0793 10.8967 16.6114 10 16.6114C9.24396 16.6114 8.03065 16.944 6.70578 17.3071C3.64969 18.1448 0 19.1451 0 16.6017C0 13.5174 2.95829 10.9271 6.21013 10.2022ZM6.35081 8.64528C6.85366 8.87313 7.41201 9 8 9C8.58799 9 9.14634 8.87313 9.64918 8.64528C11.0356 8.01705 12 6.62115 12 5C12 2.79086 10.2091 1 8 1C5.79086 1 4 2.79086 4 5C4 6.62115 4.96441 8.01705 6.35081 8.64528ZM14.4999 16.5829C14.4928 15.3586 13.7901 14.1111 12.5216 13.112C11.251 12.1112 9.57367 11.5 8 11.5C6.42633 11.5 4.74897 12.1112 3.47839 13.112C2.20344 14.1162 1.5 15.3714 1.5 16.6017C1.5 16.6282 1.50063 16.65 1.50155 16.6677C1.52587 16.6747 1.557 16.6824 1.59601 16.6898C1.72812 16.7149 1.91444 16.73 2.16416 16.7229C3.23834 16.6923 4.71794 16.2966 6.30928 15.8605L6.32942 15.855C6.97688 15.6775 7.6374 15.4964 8.2326 15.3607C8.81378 15.2281 9.44388 15.1114 10 15.1114C10.6916 15.1114 11.3553 15.2883 11.9127 15.4841C12.4639 15.6776 13.0087 15.9263 13.4646 16.1343L13.4912 16.1464C13.8924 16.3295 14.2165 16.4764 14.4999 16.5829Z" fill="white"/>
<circle cx="8" cy="5" r="1" fill="#0055FF"/>
</svg>
